<svg width="20" height="18" viewBox="0 0 20 18" fill="none" xmlns="http://www.w3.org/2000/svg">
<g id="Group">
<path id="Vector" d="M20.0007 9.00078C20.0007 5.03617 17.6935 1.61054 14.3485 -0.00695801V18.0085C17.6935 16.391 20.0007 12.9654 20.0007 9.00078Z" fill="#D80027"/>
<path id="Vector_2" d="M0.000366211 9.00029C0.000366211 12.9649 2.30759 16.3905 5.65255 18.008V-0.00744629C2.30759 1.61005 0.000366211 5.03568 0.000366211 9.00029Z" fill="#D80027"/>
<path id="Vector_3" d="M11.7396 10.3051L13.4787 9.43552L12.6092 9.00075V8.13118L10.87 9.00075L11.7396 7.26161H10.87L10.0005 5.95728L9.13089 7.26161H8.26132L9.13089 9.00075L7.39175 8.13118V9.00075L6.52222 9.43552L8.26132 10.3051L7.82655 11.1747H9.56569V12.479H10.4352V11.1747H12.1744L11.7396 10.3051Z" fill="#D80027"/>
</g>
</svg>
