<svg width="20" height="20" viewBox="0 0 20 20" fill="none" xmlns="http://www.w3.org/2000/svg">
<path d="M18.3333 10H13.3333L11.6666 12.5H8.33329L6.66663 10H1.66663M18.3333 10V15C18.3333 15.4421 18.1577 15.866 17.8451 16.1786C17.5326 16.4911 17.1087 16.6667 16.6666 16.6667H3.33329C2.89127 16.6667 2.46734 16.4911 2.15478 16.1786C1.84222 15.866 1.66663 15.4421 1.66663 15V10M18.3333 10L15.4583 4.25837C15.3203 3.9807 15.1076 3.74702 14.8441 3.58361C14.5806 3.4202 14.2767 3.33354 13.9666 3.33337H6.03329C5.72322 3.33354 5.41935 3.4202 5.15583 3.58361C4.89231 3.74702 4.67961 3.9807 4.54163 4.25837L1.66663 10" stroke="#6941C6" stroke-width="1.66667" stroke-linecap="round" stroke-linejoin="round"/>
</svg>
