<svg width="32" height="32" viewBox="0 0 32 32" fill="none" xmlns="http://www.w3.org/2000/svg">
<g id="Verified tick" clip-path="url(#clip0_557_3637)">
<path id="Vector" d="M24.711 5.66715C25.0149 6.40217 25.5983 6.98642 26.3328 7.29145L28.9086 8.35837C29.6437 8.66285 30.2277 9.24688 30.5322 9.98196C30.8367 10.717 30.8367 11.543 30.5322 12.2781L29.466 14.852C29.1614 15.5874 29.161 16.4142 29.467 17.1492L30.5313 19.7224C30.6822 20.0865 30.76 20.4767 30.76 20.8708C30.7601 21.265 30.6825 21.6553 30.5317 22.0194C30.3808 22.3835 30.1597 22.7143 29.881 22.993C29.6023 23.2716 29.2714 23.4926 28.9072 23.6433L26.3333 24.7095C25.5982 25.0134 25.014 25.5968 24.709 26.3314L23.642 28.9071C23.3376 29.6422 22.7535 30.2262 22.0185 30.5307C21.2834 30.8352 20.4574 30.8352 19.7224 30.5307L17.1484 29.4646C16.4133 29.1608 15.5877 29.1614 14.853 29.4663L12.2773 30.5317C11.5426 30.8355 10.7174 30.8352 9.98289 30.531C9.2484 30.2267 8.6647 29.6434 8.36001 28.9091L7.29277 26.3326C6.98885 25.5975 6.40548 25.0133 5.67091 24.7083L3.09514 23.6413C2.36037 23.337 1.77652 22.7533 1.47193 22.0187C1.16734 21.284 1.16692 20.4585 1.47078 19.7235L2.53694 17.1496C2.84067 16.4145 2.84005 15.5888 2.53521 14.8542L1.47059 12.2766C1.31964 11.9125 1.24192 11.5222 1.24186 11.1281C1.24179 10.734 1.31939 10.3437 1.47022 9.97956C1.62104 9.61544 1.84214 9.2846 2.12088 9.00595C2.39961 8.72731 2.73052 8.50632 3.09469 8.35561L5.66862 7.28945C6.40301 6.98579 6.98691 6.40316 7.29216 5.66944L8.35908 3.09366C8.66357 2.35857 9.24759 1.77455 9.98267 1.47007C10.7178 1.16559 11.5437 1.16559 12.2788 1.47007L14.8527 2.53623C15.5878 2.83996 16.4134 2.83934 17.1481 2.5345L19.7249 1.47172C20.4599 1.16741 21.2857 1.16748 22.0206 1.4719C22.7556 1.77632 23.3395 2.36017 23.644 3.09507L24.7113 5.67161L24.711 5.66715Z" fill="#7F56D9"/>
<path id="Vector_2" fill-rule="evenodd" clip-rule="evenodd" d="M22.2665 11.8058C22.4803 11.4701 22.5519 11.0631 22.4656 10.6746C22.3794 10.286 22.1423 9.94759 21.8065 9.73383C21.4708 9.52006 21.0638 9.44843 20.6753 9.5347C20.2867 9.62097 19.9483 9.85806 19.7345 10.1938L13.8605 19.4238L11.1725 16.0638C10.924 15.753 10.5622 15.5536 10.1667 15.5095C9.77118 15.4655 9.37436 15.5803 9.06352 15.8288C8.75269 16.0773 8.55331 16.4391 8.50923 16.8347C8.46516 17.2302 8.58001 17.627 8.82852 17.9378L12.8285 22.9378C12.9776 23.1244 13.1691 23.2727 13.387 23.3703C13.6049 23.468 13.843 23.5122 14.0815 23.4993C14.32 23.4864 14.5519 23.4167 14.758 23.2961C14.9641 23.1755 15.1385 23.0074 15.2665 22.8058L22.2665 11.8058Z" fill="white"/>
</g>
<defs>
<clipPath id="clip0_557_3637">
<rect width="32" height="32" fill="white"/>
</clipPath>
</defs>
</svg>
